<?xml version="1.0" encoding="UTF-8" standalone="no"?>
<!DOCTYPE svg PUBLIC "-//W3C//DTD SVG 1.1//EN"
 "http://www.w3.org/Graphics/SVG/1.1/DTD/svg11.dtd">
<!-- Generated by graphviz version 2.40.1 (20161225.0304)
 -->
<!-- Title: M Pages: 1 -->
<svg width="375pt" height="260pt"
 viewBox="0.00 0.00 375.00 260.00" xmlns="http://www.w3.org/2000/svg" xmlns:xlink="http://www.w3.org/1999/xlink">
<g id="graph0" class="graph" transform="scale(1 1) rotate(0) translate(4 256)">
<title>M</title>
<polygon fill="#ffffff" stroke="transparent" points="-4,4 -4,-256 371,-256 371,4 -4,4"/>
<!-- /home/jamen/pub/jet/packages/import&#45;graph/package.json -->
<g id="node1" class="node">
<title>/home/jamen/pub/jet/packages/import&#45;graph/package.json</title>
<polygon fill="#a3be8c" stroke="#a3be8c" points="260,-252 150,-252 150,-216 260,-216 260,-252"/>
<text text-anchor="middle" x="205" y="-230.3" font-family="Times,serif" font-size="14.00" fill="#000000">package.json</text>
</g>
<!-- /home/jamen/pub/jet/packages/import&#45;graph/lib/import&#45;graph.js -->
<g id="node2" class="node">
<title>/home/jamen/pub/jet/packages/import&#45;graph/lib/import&#45;graph.js</title>
<polygon fill="#a3be8c" stroke="#a3be8c" points="228,-108 78,-108 78,-72 228,-72 228,-108"/>
<text text-anchor="middle" x="153" y="-86.3" font-family="Times,serif" font-size="14.00" fill="#000000">lib/import&#45;graph.js</text>
</g>
<!-- /home/jamen/pub/jet/packages/import&#45;graph/package.json&#45;&gt;/home/jamen/pub/jet/packages/import&#45;graph/lib/import&#45;graph.js -->
<g id="edge1" class="edge">
<title>/home/jamen/pub/jet/packages/import&#45;graph/package.json&#45;&gt;/home/jamen/pub/jet/packages/import&#45;graph/lib/import&#45;graph.js</title>
<path fill="none" stroke="#a3be8c" d="M188.9691,-215.7624C181.1121,-205.8402 172.2364,-192.9683 167,-180 159.0318,-160.266 155.5723,-136.4065 154.0832,-118.2134"/>
<polygon fill="#a3be8c" stroke="#a3be8c" points="157.5751,-117.9743 153.4149,-108.2304 150.5908,-118.4419 157.5751,-117.9743"/>
</g>
<!-- /home/jamen/pub/jet/packages/import&#45;graph/lib/import&#45;graph&#45;cli.js -->
<g id="node7" class="node">
<title>/home/jamen/pub/jet/packages/import&#45;graph/lib/import&#45;graph&#45;cli.js</title>
<polygon fill="#a3be8c" stroke="#a3be8c" points="348,-180 176,-180 176,-144 348,-144 348,-180"/>
<text text-anchor="middle" x="262" y="-158.3" font-family="Times,serif" font-size="14.00" fill="#000000">lib/import&#45;graph&#45;cli.js</text>
</g>
<!-- /home/jamen/pub/jet/packages/import&#45;graph/package.json&#45;&gt;/home/jamen/pub/jet/packages/import&#45;graph/lib/import&#45;graph&#45;cli.js -->
<g id="edge6" class="edge">
<title>/home/jamen/pub/jet/packages/import&#45;graph/package.json&#45;&gt;/home/jamen/pub/jet/packages/import&#45;graph/lib/import&#45;graph&#45;cli.js</title>
<path fill="none" stroke="#a3be8c" d="M219.3835,-215.8314C225.9486,-207.5386 233.8507,-197.557 241.0578,-188.4533"/>
<polygon fill="#a3be8c" stroke="#a3be8c" points="243.9599,-190.4262 247.4228,-180.4133 238.4716,-186.0813 243.9599,-190.4262"/>
</g>
<!-- util -->
<g id="node3" class="node">
<title>util</title>
<polygon fill="#eff1f5" stroke="#eff1f5" points="54,-36 0,-36 0,0 54,0 54,-36"/>
<text text-anchor="middle" x="27" y="-14.3" font-family="Times,serif" font-size="14.00" fill="#000000">util</text>
</g>
<!-- /home/jamen/pub/jet/packages/import&#45;graph/lib/import&#45;graph.js&#45;&gt;util -->
<g id="edge2" class="edge">
<title>/home/jamen/pub/jet/packages/import&#45;graph/lib/import&#45;graph.js&#45;&gt;util</title>
<path fill="none" stroke="#eff1f5" d="M121.2049,-71.8314C103.4119,-61.664 81.1762,-48.9578 62.7764,-38.4437"/>
<polygon fill="#eff1f5" stroke="#eff1f5" points="64.5071,-35.4016 54.0882,-33.479 61.0341,-41.4793 64.5071,-35.4016"/>
</g>
<!-- fs -->
<g id="node4" class="node">
<title>fs</title>
<polygon fill="#eff1f5" stroke="#eff1f5" points="286,-36 232,-36 232,0 286,0 286,-36"/>
<text text-anchor="middle" x="259" y="-14.3" font-family="Times,serif" font-size="14.00" fill="#000000">fs</text>
</g>
<!-- /home/jamen/pub/jet/packages/import&#45;graph/lib/import&#45;graph.js&#45;&gt;fs -->
<g id="edge3" class="edge">
<title>/home/jamen/pub/jet/packages/import&#45;graph/lib/import&#45;graph.js&#45;&gt;fs</title>
<path fill="none" stroke="#eff1f5" d="M179.7483,-71.8314C193.0553,-62.7927 209.316,-51.7476 223.6375,-42.0198"/>
<polygon fill="#eff1f5" stroke="#eff1f5" points="225.9547,-44.677 232.2603,-36.1628 222.0215,-38.8864 225.9547,-44.677"/>
</g>
<!-- path -->
<g id="node5" class="node">
<title>path</title>
<polygon fill="#eff1f5" stroke="#eff1f5" points="126,-36 72,-36 72,0 126,0 126,-36"/>
<text text-anchor="middle" x="99" y="-14.3" font-family="Times,serif" font-size="14.00" fill="#000000">path</text>
</g>
<!-- /home/jamen/pub/jet/packages/import&#45;graph/lib/import&#45;graph.js&#45;&gt;path -->
<g id="edge4" class="edge">
<title>/home/jamen/pub/jet/packages/import&#45;graph/lib/import&#45;graph.js&#45;&gt;path</title>
<path fill="none" stroke="#eff1f5" d="M139.3735,-71.8314C133.154,-63.5386 125.6678,-53.557 118.84,-44.4533"/>
<polygon fill="#eff1f5" stroke="#eff1f5" points="121.61,-42.3133 112.81,-36.4133 116.01,-46.5133 121.61,-42.3133"/>
</g>
<!-- module -->
<g id="node6" class="node">
<title>module</title>
<polygon fill="#eff1f5" stroke="#eff1f5" points="213.5,-36 144.5,-36 144.5,0 213.5,0 213.5,-36"/>
<text text-anchor="middle" x="179" y="-14.3" font-family="Times,serif" font-size="14.00" fill="#000000">module</text>
</g>
<!-- /home/jamen/pub/jet/packages/import&#45;graph/lib/import&#45;graph.js&#45;&gt;module -->
<g id="edge5" class="edge">
<title>/home/jamen/pub/jet/packages/import&#45;graph/lib/import&#45;graph.js&#45;&gt;module</title>
<path fill="none" stroke="#eff1f5" d="M159.5609,-71.8314C162.4027,-63.9617 165.7937,-54.5712 168.9419,-45.8533"/>
<polygon fill="#eff1f5" stroke="#eff1f5" points="172.2462,-47.0076 172.3508,-36.4133 165.6623,-44.63 172.2462,-47.0076"/>
</g>
<!-- /home/jamen/pub/jet/packages/import&#45;graph/lib/import&#45;graph&#45;cli.js&#45;&gt;/home/jamen/pub/jet/packages/import&#45;graph/lib/import&#45;graph.js -->
<g id="edge9" class="edge">
<title>/home/jamen/pub/jet/packages/import&#45;graph/lib/import&#45;graph&#45;cli.js&#45;&gt;/home/jamen/pub/jet/packages/import&#45;graph/lib/import&#45;graph.js</title>
<path fill="none" stroke="#a3be8c" d="M234.4947,-143.8314C220.682,-134.7074 203.7744,-123.539 188.9471,-113.7449"/>
<polygon fill="#a3be8c" stroke="#a3be8c" points="190.7696,-110.7541 180.4965,-108.1628 186.9114,-116.5949 190.7696,-110.7541"/>
</g>
<!-- /home/jamen/pub/jet/packages/import&#45;graph/lib/import&#45;graph&#45;cli.js&#45;&gt;fs -->
<g id="edge8" class="edge">
<title>/home/jamen/pub/jet/packages/import&#45;graph/lib/import&#45;graph&#45;cli.js&#45;&gt;fs</title>
<path fill="none" stroke="#eff1f5" d="M261.62,-143.7623C261.1084,-119.201 260.1927,-75.2474 259.5907,-46.3541"/>
<polygon fill="#eff1f5" stroke="#eff1f5" points="263.0845,-46.0145 259.3769,-36.0896 256.086,-46.1604 263.0845,-46.0145"/>
</g>
<!-- minimist -->
<g id="node8" class="node">
<title>minimist</title>
<polygon fill="#a7adba" stroke="#a7adba" points="367,-108 287,-108 287,-72 367,-72 367,-108"/>
<text text-anchor="middle" x="327" y="-86.3" font-family="Times,serif" font-size="14.00" fill="#000000">minimist</text>
</g>
<!-- /home/jamen/pub/jet/packages/import&#45;graph/lib/import&#45;graph&#45;cli.js&#45;&gt;minimist -->
<g id="edge7" class="edge">
<title>/home/jamen/pub/jet/packages/import&#45;graph/lib/import&#45;graph&#45;cli.js&#45;&gt;minimist</title>
<path fill="none" stroke="#a7adba" d="M278.4022,-143.8314C286.0415,-135.3694 295.2683,-125.1489 303.6207,-115.8971"/>
<polygon fill="#a7adba" stroke="#a7adba" points="306.2738,-118.1813 310.3769,-108.4133 301.0779,-113.4906 306.2738,-118.1813"/>
</g>
</g>
</svg>
